{"title":"Dear VS Bear (2014) Web Rip - XviD - [1CD] - Team IcTv Exclusive","uid":11873740,"size":726010596,"categoryP":"video","categoryS":"other","magnet":"?xt=urn:btih:1dfd0e1a7436857f9a24b23e87dc848342f2253e&amp;dn=Dear+VS+Bear+%282014%29+Web+Rip+-+XviD+-+%5B1CD%5D+-+Team+IcTv+Exclusive&amp;tr=udp%3A%2F%2Ftracker.openbittorrent.com%3A80&amp;tr=udp%3A%2F%2Fopen.demonii.com%3A1337&amp;tr=udp%3A%2F%2Ftracker.coppersurfer.tk%3A6969&amp;tr=udp%3A%2F%2Fexodus.desync.com%3A6969","seeders":0,"leechers":1,"uploader":"juggs99","files":2,"time":1430491263,"description":"Dear VS Bear (2014) Web Rip - XviD - [1CD] - Team IcTv Exclusive -={SPARROW}=-\n &lt;a href=&quot;\nhttp://imgsparrow.co/image/JE&quot; rel=&quot;nofollow&quot; target=&quot;_NEW&quot;&gt;\nhttp://imgsparrow.co/image/JE&lt;/a&gt;\n\nInfo : - \n\nAll Credit Goes To Intellect Clever &amp; IcTv\n\nMovie Info\nMovie Info\nYear : 2014\nBanner : Rajlaxmi Movies\nCast : Uttar Kumar,Lovely Joshi,Manoj Bakshi\nVideo: XviD\nAudio : MP3\nGenre : Drama\nSubtitles : None\nLanguage : Hindi\nResolution : 640 x 272\nRuntime : 2hr 23min xx\nSource : Team IcTv\n\nFormat                                   : AVI\nFormat/Info                              : Audio Video Interleave\nFile size                                : 692 MiB\nDuration                                 : 2h 22mn\nOverall bit rate                         : 677 Kbps\n\nVideo\nID                                       : 0\nFormat                                   : MPEG-4 Visual\nFormat profile                           : Advanced Simple@L5\nFormat settings, BVOP                    : 2\nFormat settings, QPel                    : No\nFormat settings, GMC                     : No warppoints\nFormat settings, Matrix                  : Default (H.263)\nCodec ID                                 : XVID\nCodec ID/Hint                            : XviD\nDuration                                 : 2h 22mn\nBit rate                                 : 543 Kbps\nWidth                                    : 640 pixels\nHeight                                   : 272 pixels\nDisplay aspect ratio                     : 2.35:1\nFrame rate                               : 25.000 fps\nColor space                              : YUV\nChroma subsampling                       : 4:2:0\nBit depth                                : 8 bits\nScan type                                : Progressive\nCompression mode                         : Lossy\nBits/(Pixel*Frame)                       : 0.125\nStream size                              : 555 MiB (80%)\nWriting library                          : XviD 1.2.1 (UTC 2008-12-04)\n\nAudio\nID                                       : 1\nFormat                                   : MPEG Audio\nFormat version                           : Version 1\nFormat profile                           : Layer 3\nMode                                     : Joint stereo\nMode extension                           : MS Stereo\nCodec ID                                 : 55\nCodec ID/Hint                            : MP3\nDuration                                 : 2h 22mn\nBit rate mode                            : Constant\nBit rate                                 : 128 Kbps\nChannel(s)                               : 2 channels\nSampling rate                            : 48.0 KHz\nCompression mode                         : Lossy\nStream size                              : 131 MiB (19%)\n\nScreens : - \n &lt;a href=&quot;\nhttp://imgsparrow.co/image/JJ&quot; rel=&quot;nofollow&quot; target=&quot;_NEW&quot;&gt;\nhttp://imgsparrow.co/image/JJ&lt;/a&gt; &lt;a href=&quot;\nhttp://imgsparrow.co/image/JU&quot; rel=&quot;nofollow&quot; target=&quot;_NEW&quot;&gt;\nhttp://imgsparrow.co/image/JU&lt;/a&gt; &lt;a href=&quot;\nhttp://imgsparrow.co/image/Ju&quot; rel=&quot;nofollow&quot; target=&quot;_NEW&quot;&gt;\nhttp://imgsparrow.co/image/Ju&lt;/a&gt; &lt;a href=&quot;\nhttp://imgsparrow.co/image/Jw&quot; rel=&quot;nofollow&quot; target=&quot;_NEW&quot;&gt;\nhttp://imgsparrow.co/image/Jw&lt;/a&gt; &lt;a href=&quot;\nhttp://imgsparrow.co/image/J4&quot; rel=&quot;nofollow&quot; target=&quot;_NEW&quot;&gt;\nhttp://imgsparrow.co/image/J4&lt;/a&gt; &lt;a href=&quot;\nhttp://imgsparrow.co/image/JH&quot; rel=&quot;nofollow&quot; target=&quot;_NEW&quot;&gt;\nhttp://imgsparrow.co/image/JH&lt;/a&gt; &lt;a href=&quot;\nhttp://imgsparrow.co/image/JT&quot; rel=&quot;nofollow&quot; target=&quot;_NEW&quot;&gt;\nhttp://imgsparrow.co/image/JT&lt;/a&gt; &lt;a href=&quot;\nhttp://imgsparrow.co/image/Jb&quot; rel=&quot;nofollow&quot; target=&quot;_NEW&quot;&gt;\nhttp://imgsparrow.co/image/Jb&lt;/a&gt;\n &lt;a href=&quot;\nhttp://imgsparrow.co/image/N2&quot; rel=&quot;nofollow&quot; target=&quot;_NEW&quot;&gt;\nhttp://imgsparrow.co/image/N2&lt;/a&gt;","torrent":{"xt":"urn:btih:1dfd0e1a7436857f9a24b23e87dc848342f2253e","amp;dn":"Dear+VS+Bear+%282014%29+Web+Rip+-+XviD+-+%5B1CD%5D+-+Team+IcTv+Exclusive","amp;tr":["udp%3A%2F%2Ftracker.openbittorrent.com%3A80","udp%3A%2F%2Fopen.demonii.com%3A1337","udp%3A%2F%2Ftracker.coppersurfer.tk%3A6969","udp%3A%2F%2Fexodus.desync.com%3A6969"],"infoHash":"1dfd0e1a7436857f9a24b23e87dc848342f2253e","infoHashBuffer":{"type":"Buffer","data":[29,253,14,26,116,54,133,127,154,36,178,62,135,220,132,131,66,242,37,62]},"announce":[],"urlList":[]}}